inDegrees=no
num_controls=7
num_derivatives=13
num_iterations=188
num_multipliers=7
num_parameters=0
num_slacks=7
num_states=26
objective=5.142396
objective_accelerations=0.356069
objective_balance=0.010958
objective_effort=0.342304
objective_height=4.357224
objective_ligament=0.075841
solver_duration=1609.815024
status=Solve_Succeeded
success=true
DataType=double
version=3
OpenSimVersion=4.4-2022-07-23-0e9fedc
endheader
time	/jointset/ground_pelvis/pelvis_tilt/value	/jointset/ground_pelvis/pelvis_tx/value	/jointset/ground_pelvis/pelvis_ty/value	/jointset/hip_r/hip_flexion_r/value	/jointset/hip_r/hip_adduction_r/value	/jointset/hip_r/hip_rotation_r/value	/jointset/back/lumbar_extension/value	/jointset/patellofemoral_r/patellar_flexion_r/value	/jointset/knee_r/knee_flexion_r/value	/jointset/knee_r/knee_adduction_r/value	/jointset/knee_r/knee_rotation_r/value	/jointset/ankle_r/ankle_angle_r/value	/jointset/subtalar_r/subtalar_angle_r/value	/jointset/ground_pelvis/pelvis_tilt/speed	/jointset/ground_pelvis/pelvis_tx/speed	/jointset/ground_pelvis/pelvis_ty/speed	/jointset/hip_r/hip_flexion_r/speed	/jointset/hip_r/hip_adduction_r/speed	/jointset/hip_r/hip_rotation_r/speed	/jointset/back/lumbar_extension/speed	/jointset/patellofemoral_r/patellar_flexion_r/speed	/jointset/knee_r/knee_flexion_r/speed	/jointset/knee_r/knee_adduction_r/speed	/jointset/knee_r/knee_rotation_r/speed	/jointset/ankle_r/ankle_angle_r/speed	/jointset/subtalar_r/subtalar_angle_r/speed	/forceset/tau_hip_flexion_r	/forceset/tau_hip_adduction_r	/forceset/tau_hip_rotation_r	/forceset/tau_knee_flexion_r	/forceset/tau_ankle_angle_r	/forceset/tau_subtalar_angle_r	/forceset/tau_lumbar_extension	lambda_cid13_p0	lambda_cid14_p0	lambda_cid14_p1	lambda_cid14_p2	lambda_cid14_p3	lambda_cid14_p4	lambda_cid14_p5	/jointset/ground_pelvis/pelvis_tilt/accel	/jointset/ground_pelvis/pelvis_tx/accel	/jointset/ground_pelvis/pelvis_ty/accel	/jointset/hip_r/hip_flexion_r/accel	/jointset/hip_r/hip_adduction_r/accel	/jointset/hip_r/hip_rotation_r/accel	/jointset/back/lumbar_extension/accel	/jointset/patellofemoral_r/patellar_flexion_r/accel	/jointset/knee_r/knee_flexion_r/accel	/jointset/knee_r/knee_adduction_r/accel	/jointset/knee_r/knee_rotation_r/accel	/jointset/ankle_r/ankle_angle_r/accel	/jointset/subtalar_r/subtalar_angle_r/accel	gamma_cid13_p0	gamma_cid14_p0	gamma_cid14_p1	gamma_cid14_p2	gamma_cid14_p3	gamma_cid14_p4	gamma_cid14_p5
1	-0.08205673876720809	0.03827517672736744	0.7446514507320259	0.9846139669591308	-0.2598638513978714	0.02523203184229203	-0.7853413734338626	1.248673959892058	1.24867395989214	0.05380899404810973	0.1745325899562695	0.4362671600429883	0.1323718777776337	0.0696186770052855	0.007686496660747211	0.01338788321913431	-0.1025736910735155	-0.00135457510277684	-0.006242779640209996	0.008603966083074985	-0.01959799962529052	-0.01959799962529004	0.001581195469766544	-4.970496710750056e-06	0.01298499263301694	0.003339170841583599	-0.236273679947358	0.0163453539451069	0.04611934289584151	-0.406375418579295	-0.06746878081269873	-0.002631308834586789	0.2995613854917512	-0.05226568447898493	-70.62379605107824	-13.9154257199823	3.105248658096386	8.174021698216452	-734.5827617879224	74.12221850045709	0.7971477634128136	0.1529826238393756	1.157504735365705	-3.614237281200647	0.06597509809127665	-1.205670027090443	0.579110849360746	-3.944101201111275	-3.944101201111282	-0.02860384819265461	-0.001384573993355567	-1.300514951255297	-0.4199604921285046	7.011839889586223e-11	-2.353544144972586e-09	-7.37721991563434e-09	-1.101747466740664e-09	4.179531118929406e-09	-6.571875152189201e-09	-1.209135167273331e-08
1.01	-0.08132171829228345	0.03835989566648034	0.7448430592364688	0.9834085238271019	-0.2598740476686223	0.02510889041583977	-0.7852238807737023	1.24828101918966	1.24828101918967	0.05382280707515254	0.1745325251775657	0.4363323108345444	0.1323845165455387	0.07734545694037216	0.009280101177128245	0.02493256978724398	-0.1385061142542208	-0.0006866200878588894	-0.01838355367440381	0.01507386798426419	-0.05899503583919994	-0.05899503583919982	0.001187943560713051	-7.432351739327072e-06	7.180549058331232e-05	-0.0008032694157011026	-0.2368982221500864	0.01645477003279609	0.04610583621610743	-0.4062542882493362	-0.06779156828755846	-0.002585982386880142	0.3004816817645822	-0.05302868631118483	-70.75290297990421	-13.91287379701232	3.098590868979022	7.981701030476144	-735.1941533834164	74.13121220381716	0.7544490779348865	0.165972419839044	1.152761262694606	-3.581421849253366	0.06691372659983776	-1.21798925265099	0.7078251657658494	-3.938238958548116	-3.938238958548155	-0.04370600719741358	0.000403403349890586	-1.282724847633683	-0.4101662143131085	-5.968028345322112e-10	-4.599905220561574e-09	-1.06055937185243e-08	-8.48677536076686e-09	7.723942926565442e-09	-1.081965257959243e-08	-1.642235003659834e-08
1.02	-0.08051062882413385	0.03846123526161739	0.7451500767356249	0.9818440210607178	-0.259877622784543	0.02486439961683292	-0.7850363100334761	1.247493961299719	1.247493961299657	0.05383288355411782	0.1745324518592406	0.4362691289042956	0.1323559748265138	0.08483247565059354	0.01101062786557484	0.03646968216179543	-0.1743856179448399	-3.034413662977368e-05	-0.03051265415128361	0.02261958209616792	-0.09842143713380373	-0.09842143713380394	0.0008338858542310734	-6.678422467686135e-06	-0.01268155172770212	-0.00489692654437231	-0.237522764352801	0.01656418612048687	0.04609232953637069	-0.406133157919376	-0.068114355762419	-0.002540655939170775	0.301401978037425	-0.05465764645559841	-70.8915593275005	-13.90973672469261	3.08926198596746	7.794423964687983	-735.9641132775929	74.14637504643304	0.7491955184397404	0.1803670582525085	1.155989896654062	-3.603653383183416	0.0636392853535009	-1.203335315627649	0.7942732915036436	-3.949974217250149	-3.949974217250149	-0.02076500767834508	-0.000741417133294867	-1.268548966425628	-0.4102038664058087	-1.22890871220213e-09	-5.059187486252609e-09	-1.241508050137418e-08	-1.623340378549782e-08	7.746775026034368e-09	-1.3549286651532e-08	-1.804815571881516e-08
1.03	-0.0796258393274502	0.03858040814546543	0.7455723853343319	0.9799212136480908	-0.259874660962566	0.02449872270863056	-0.7847685241435033	1.246312451098831	1.246312451098767	0.05383963890883961	0.1745323960316122	0.436078908288091	0.1322866785768124	0.09208672966347309	0.01283116143190313	0.04798634711609051	-0.2101425951920843	0.0006241483819194719	-0.04261641287169986	0.03105708759939177	-0.1378894155054313	-0.1378894155054339	0.0005255255254398388	-4.705905342705953e-06	-0.02536633388797824	-0.008960146779306202	-0.2376704005760917	0.01674614580982915	0.04604125551492241	-0.4055343046134325	-0.06878903891660901	-0.00248939530459434	0.3017531424169332	-0.05734208258790121	-71.11536656280458	-13.91578356667954	3.077800859049943	7.912012066751688	-736.1609209756127	74.07822464571107	0.7077361496083087	0.1839799317255234	1.148647956162053	-3.556729968626991	0.0665667957107665	-1.212951432818755	0.886412934864434	-3.946531140389441	-3.946531140389784	-0.03462059935854735	0.0006279366345715154	-1.26900716999034	-0.404059651187351	-1.860659331139823e-09	-5.500234253883452e-09	-1.421008884524405e-08	-2.39837220115625e-08	7.733672638685244e-09	-1.626342946474233e-08	-1.964635739407639e-08
1.04	-0.07866966812925956	0.03871800305015725	0.7461096892148505	0.9776418344483654	-0.2598651117032828	0.02401219715671095	-0.7844127784474718	1.244735996815573	1.244735996815507	0.05384356084949839	0.1745323521992604	0.4357617269844508	0.1321768144149316	0.09910881595220422	0.01469503203433218	0.0594687385241805	-0.2456999753646097	0.001287143324673319	-0.05468238289492196	0.04021154330792374	-0.1774102536078745	-0.1774102536078793	0.000267203041487199	-4.27936825040354e-06	-0.03807368921472393	-0.01301050898024714	-0.2378180367993763	0.01692810549917364	0.045990181493468	-0.4049354513074888	-0.06946372207079883	-0.002438134670013508	0.3021043067964463	-0.06134498493363544	-71.348735853821	-13.92121386527335	3.063625247139702	8.033180620022609	-736.5173019764048	74.01651974264381	0.7027619736100296	0.1890344654726827	1.149135187413044	-3.563733968239621	0.06533977019440461	-1.195777576188832	0.9376633325652651	-3.960546163413251	-3.960546163413253	-0.010757438710616	-0.001050613139791459	-1.273063599719509	-0.4076322596072341	-2.588842835354701e-09	-6.912936044107009e-09	-1.850350606799305e-08	-3.083899165505361e-08	9.830142444988378e-09	-1.878279644483373e-08	-2.540763300397881e-08
1.05	-0.07764440969586578	0.03887449011899907	0.7467615970008866	0.9750078921257148	-0.2598488887790627	0.02340524203264591	-0.7839618986818419	1.242764177823166	1.242764177823064	0.05384516117876707	0.174532318879107	0.4353174357787457	0.1320265577587161	0.1059046575649467	0.01661328982256492	0.07090197429081578	-0.2810513397107252	0.001959481092040808	-0.06669801865469592	0.05008729216050015	-0.2169513668254337	-0.2169513668254404	6.161406826094763e-05	-2.492696249107565e-06	-0.05078066911645495	-0.01703309297439159	-0.2377227946279206	0.0170375169959275	0.04591669644907068	-0.4041743579413242	-0.0698537532733641	-0.002401846995794388	0.3022621305575742	-0.06702219639116201	-71.46649994627295	-13.91141426461731	3.045318022560453	8.051215741784223	-736.5297140125058	73.94251813323957	0.6622631387082729	0.1948600691944984	1.138786827856204	-3.515265934358569	0.06848129012515208	-1.202866897465444	1.030963012951528	-3.950566522316088	-3.950566522316371	-0.02414725944718968	0.0007679277967357755	-1.268932703377297	-0.3984201057161313	-3.320039867234491e-09	-8.356002053786585e-09	-2.287499856820701e-08	-3.76662910303393e-08	1.199253638234313e-08	-2.129607668014016e-08	-3.129900467433874e-08
